
<svg id="shopping-header" width="24" height="24" viewBox="0 0 24 24" fill="none" 
    stroke="currentColor"  xmlns="http://www.w3.org/2000/svg">
<path class="shopping-header-icon-path"  d="M5.00014 14H18.1359C19.1487 14 19.6551 14 20.0582 13.8112C20.4134 13.6448 20.7118 13.3777 20.9163 13.0432C21.1485 12.6633 21.2044 12.16 21.3163 11.1534L21.9013 5.88835C21.9355 5.58088 21.9525 5.42715 21.9031 5.30816C21.8597 5.20366 21.7821 5.11697 21.683 5.06228C21.5702 5 21.4155 5 21.1062 5H4.50014M2 2H3.24844C3.51306 2 3.64537 2 3.74889 2.05032C3.84002 2.09463 3.91554 2.16557 3.96544 2.25376C4.02212 2.35394 4.03037 2.48599 4.04688 2.7501L4.95312 17.2499C4.96963 17.514 4.97788 17.6461 5.03456 17.7462C5.08446 17.8344 5.15998 17.9054 5.25111 17.9497C5.35463 18 5.48694 18 5.75156 18H19M7.5 21.5H7.51M16.5 21.5H16.51M8 21.5C8 21.7761 7.77614 22 7.5 22C7.22386 22 7 21.7761 7 21.5C7 21.2239 7.22386 21 7.5 21C7.77614 21 8 21.2239 8 21.5ZM17 21.5C17 21.7761 16.7761 22 16.5 22C16.2239 22 16 21.7761 16 21.5C16 21.2239 16.2239 21 16.5 21C16.7761 21 17 21.2239 17 21.5Z" stroke="#050505" stroke-width="1.5" stroke-linecap="round" stroke-linejoin="round"/>
</svg>

  <!-- <svg class="icon icon-Icon-1"><use xlink:href="#icon-Icon-1"></use></svg> -->
<svg id="icon-Icon-1"  width="24" height="24" viewBox="0 0 36 32" xmlns="http://www.w3.org/2000/svg">
<path fill="#f8f8f8" style="fill: var(--color1, #f8f8f8)" d="M17.767 4.814c-3.258-3.809-8.691-4.834-12.774-1.346s-4.657 9.32-1.451 13.445c2.665 3.43 10.732 10.664 13.376 13.005 0.296 0.262 0.444 0.393 0.616 0.444 0.151 0.045 0.315 0.045 0.466 0 0.173-0.052 0.321-0.183 0.616-0.444 2.644-2.341 10.71-9.575 13.376-13.005 3.206-4.125 2.701-9.994-1.451-13.445s-9.516-2.463-12.774 1.346z"></path>
</svg>
<!-- <svg class="icon icon-Icon"><use xlink:href="#icon-Icon"></use></svg> -->
<svg id="icon-Icon"  width="24" height="24" viewBox="0 0 35 32" xmlns="http://www.w3.org/2000/svg">
<path fill="none" opacity="0.5" stroke="#f8f8f8" style="stroke: var(--color1, #f8f8f8)" stroke-linejoin="round" stroke-linecap="round" stroke-miterlimit="4" stroke-width="3.2" d="M17.59 5.933c-2.932-3.428-7.822-4.35-11.496-1.211s-4.191 8.388-1.306 12.101c2.399 3.087 9.659 9.597 12.038 11.705 0.266 0.236 0.399 0.354 0.555 0.4 0.136 0.040 0.284 0.040 0.419 0 0.155-0.046 0.288-0.164 0.555-0.4 2.379-2.107 9.639-8.618 12.038-11.705 2.885-3.713 2.431-8.994-1.306-12.101s-8.564-2.217-11.496 1.211z"></path>
</svg>